<svg xmlns="http://www.w3.org/2000/svg" width="17.896" height="15.883" viewBox="0 0 17.896 15.883"><g transform="translate(0.298 0.289)"><g transform="translate(2.084 6.178)"><path d="M73.853,211.786v8.059H62.788v-8.059H61.681V220.4a.553.553,0,0,0,.553.553H74.406a.553.553,0,0,0,.553-.553v-8.613Z" transform="translate(-61.681 -211.786)" fill="#fff" stroke="#fff" stroke-width="0.5"/></g><g transform="translate(0 0)"><path d="M17.124,36.586,9.1,29.08a.553.553,0,0,0-.752,0L.179,36.583a.553.553,0,0,0,.749.815L8.72,30.239l7.648,7.156a.553.553,0,0,0,.756-.808Z" transform="translate(0 -28.931)" fill="#fff" stroke="#fff" stroke-width="0.5"/></g></g></svg>