<svg id="Layer_1" data-name="Layer 1" xmlns="http://www.w3.org/2000/svg" viewBox="0 0 380.85 83.1"><defs><style>.cls-1{fill:#f7941d;}.cls-2{fill:#fff;}</style></defs><path class="cls-1" d="M119.16,1.57c7.08,0,12,4.71,12,11.82s-5.05,11.82-12.32,11.82h-6.46V36.09h-7.23V1.57Zm-6.82,18h4.88c4.14,0,6.55-2.2,6.55-6.15s-2.39-6.12-6.53-6.12h-4.9Z"/><path class="cls-1" d="M134.78,10.45h6.75v4.61h.14c.91-3.25,3.09-5,6.1-5a7.27,7.27,0,0,1,2,.26v6.15a7.19,7.19,0,0,0-2.54-.41c-3.44,0-5.45,2.11-5.45,5.72V36.09h-7Z"/><path class="cls-1" d="M150.83,23.25c0-8.31,5-13.35,12.71-13.35s12.7,5,12.7,13.35-5,13.4-12.7,13.4S150.83,31.67,150.83,23.25Zm18.31,0c0-5.1-2.2-8-5.6-8s-5.62,2.94-5.62,8,2.17,8,5.62,8S169.14,28.41,169.14,23.27Z"/><path class="cls-1" d="M181.7,15.71h-3.49V10.57h3.49V8.63c0-5,2.37-7.37,8.44-7.37a20.15,20.15,0,0,1,3.57.31V6.19A10.41,10.41,0,0,0,191.82,6c-2.3,0-3.3,1-3.3,2.83v1.7h5.09v5.14h-4.93V36.09h-7Z"/><path class="cls-1" d="M220,28.25c-.77,5-5.36,8.4-11.7,8.4-7.9,0-12.64-5-12.64-13.26S200.41,9.9,208,9.9s12.18,5,12.18,12.84v2.13H202.49v.43c0,3.66,2.32,6.18,5.89,6.18,2.56,0,4.52-1.27,5.16-3.23Zm-17.4-7.66h10.89c-.14-3.28-2.27-5.53-5.39-5.53S202.8,17.38,202.56,20.59Z"/><path class="cls-1" d="M234.14,9.9c6.44,0,10.63,3.25,10.72,8.23h-6.43c-.15-2.06-1.8-3.33-4.38-3.33-2.42,0-4,1.1-4,2.75,0,1.27,1.1,2.13,3.35,2.66l4.91,1.05c5.14,1.15,7.22,3.18,7.22,7,0,5.05-4.64,8.38-11.41,8.38s-11.05-3.31-11.44-8.31h6.82c.34,2.16,2,3.4,4.81,3.4s4.26-1,4.26-2.73c0-1.29-.86-2-3.16-2.56l-4.74-1.05c-4.85-1.1-7.34-3.64-7.34-7.42C223.33,13.1,227.56,9.9,234.14,9.9Z"/><path class="cls-1" d="M259.39,9.9c6.43,0,10.62,3.25,10.71,8.23h-6.43c-.15-2.06-1.8-3.33-4.38-3.33-2.42,0-4,1.1-4,2.75,0,1.27,1.1,2.13,3.35,2.66l4.91,1.05c5.14,1.15,7.22,3.18,7.22,7,0,5.05-4.64,8.38-11.41,8.38s-11.05-3.31-11.43-8.31h6.81c.34,2.16,2,3.4,4.81,3.4s4.26-1,4.26-2.73c0-1.29-.86-2-3.16-2.56l-4.73-1.05c-4.86-1.1-7.35-3.64-7.35-7.42C248.57,13.1,252.81,9.9,259.39,9.9Z"/><path class="cls-1" d="M274.12,4a3.74,3.74,0,1,1,3.74,3.61A3.64,3.64,0,0,1,274.12,4Zm.24,6.44h7V36.09h-7Z"/><path class="cls-1" d="M285.06,23.25c0-8.31,5-13.35,12.7-13.35s12.71,5,12.71,13.35-5,13.4-12.71,13.4S285.06,31.67,285.06,23.25Zm18.3,0c0-5.1-2.2-8-5.6-8s-5.62,2.94-5.62,8,2.18,8,5.62,8S303.36,28.41,303.36,23.27Z"/><path class="cls-1" d="M314.06,10.45h6.74V15H321c1.36-3.19,4.06-5,8-5,5.7,0,8.9,3.59,8.9,9.59V36.09h-7V21c0-3.35-1.58-5.26-4.72-5.26S321,18.05,321,21.38V36.09h-7Z"/><path class="cls-1" d="M341.31,28.73c0-4.67,3.59-7.37,10-7.76l6.45-.38v-1.7c0-2.39-1.67-3.78-4.3-3.78s-4.26,1.29-4.6,3.18h-6.38c.26-5,4.49-8.39,11.29-8.39,6.58,0,10.86,3.39,10.86,8.56V36.09h-6.75V32.17h-.14a8.81,8.81,0,0,1-7.82,4.33C345,36.5,341.31,33.34,341.31,28.73Zm16.43-2V24.82l-5.4.34c-2.61.19-4.09,1.36-4.09,3.18s1.58,3.11,3.94,3.11C355.23,31.45,357.74,29.47,357.74,26.69Z"/><path class="cls-1" d="M369.28,1.57h7V36.09h-7Z"/><path class="cls-1" d="M113.37,82.09V53.53h-10v-6h27.2v6h-10V82.09Z"/><path class="cls-1" d="M127.44,69.25c0-8.31,5-13.35,12.7-13.35s12.71,5,12.71,13.35-5,13.4-12.71,13.4S127.44,77.67,127.44,69.25Zm18.3,0c0-5.1-2.2-8-5.6-8s-5.62,2.94-5.62,8,2.18,8,5.62,8S145.74,74.41,145.74,69.27Z"/><path class="cls-1" d="M155.5,69.25c0-8.31,5-13.35,12.71-13.35s12.7,5,12.7,13.35-4.95,13.4-12.7,13.4S155.5,77.67,155.5,69.25Zm18.3,0c0-5.1-2.2-8-5.59-8s-5.63,2.94-5.63,8,2.18,8,5.63,8S173.8,74.41,173.8,69.27Z"/><path class="cls-1" d="M184.67,47.57h7V82.09h-7Z"/><path class="cls-1" d="M206.75,55.9c6.44,0,10.62,3.25,10.72,8.23H211c-.14-2.06-1.79-3.33-4.38-3.33-2.41,0-4,1.1-4,2.75,0,1.27,1.1,2.13,3.35,2.66l4.9,1.05c5.15,1.15,7.23,3.18,7.23,7,0,5-4.64,8.38-11.41,8.38s-11.06-3.31-11.44-8.31h6.82c.33,2.16,2,3.4,4.81,3.4s4.26-1,4.26-2.73c0-1.29-.87-2-3.16-2.56l-4.74-1c-4.86-1.1-7.35-3.64-7.35-7.42C195.93,59.1,200.17,55.9,206.75,55.9Z"/><path class="cls-2" d="M85.07,22.7,72,0H45.76L34.87,18.85H13.1L0,41.55,13.1,64.24H34.87L45.76,83.1H72L85.07,60.4,74.18,41.55Zm-34.88-15H67.53l8.67,15L69.75,33.86l-8.67-15H43.75ZM17.54,56.56l-8.67-15,8.67-15h12.9l-8.67,15,8.67,15Zm21.67-7.51-2.12,3.67L30.64,41.55l6.45-11.17L39.21,34l4.33,7.51ZM56.64,26.54l6.45,11.17H50.19L45.86,30.2l-2.12-3.66ZM45.86,52.9l4.33-7.51h12.9L56.64,56.56H43.74ZM76.2,60.4l-8.67,15H50.19L43.75,64.24H61.08l8.67-15Z"/></svg>