<svg xmlns="http://www.w3.org/2000/svg" width="11.093" height="13.866" viewBox="0 0 11.093 13.866"><g transform="translate(-18.42 -17.289)"><g transform="translate(18.42 17.289)"><path d="M9.533,16.013H1.56A1.562,1.562,0,0,1,0,14.453V8.56A1.562,1.562,0,0,1,1.56,7H9.533a1.562,1.562,0,0,1,1.56,1.56v5.893A1.562,1.562,0,0,1,9.533,16.013ZM1.56,8.04a.521.521,0,0,0-.52.52v5.893a.521.521,0,0,0,.52.52H9.533a.521.521,0,0,0,.52-.52V8.56a.521.521,0,0,0-.52-.52Z" transform="translate(0 -2.147)" fill="#f90"/><path d="M9.413,5.893a.52.52,0,0,1-.52-.52V3.466a2.427,2.427,0,0,0-4.853,0V5.373a.52.52,0,0,1-1.04,0V3.466a3.467,3.467,0,0,1,6.933,0V5.373A.52.52,0,0,1,9.413,5.893Z" transform="translate(-0.92 0)" fill="#f90"/></g></g></svg>