<svg xmlns="http://www.w3.org/2000/svg" width="9.333" height="12.25" viewBox="0 0 9.333 12.25"><g transform="translate(0 0)"><path d="M2,0H7.333a2,2,0,0,1,2,2V6.167a2,2,0,0,1-2,2H2a2,2,0,0,1-2-2V2A2,2,0,0,1,2,0Z" transform="translate(0 4.083)" fill="#27c940"/><g transform="translate(1.75)" fill="none" stroke-miterlimit="10"><path d="M2.5,0h.833a2.5,2.5,0,0,1,2.5,2.5V5.667a2.5,2.5,0,0,1-2.5,2.5H2.5A2.5,2.5,0,0,1,0,5.667V2.5A2.5,2.5,0,0,1,2.5,0Z" stroke="none"/><path d="M 2.499996662139893 1.000003337860107 C 1.672896862030029 1.000003337860107 0.9999966621398926 1.672903537750244 0.9999966621398926 2.500003337860107 L 0.9999966621398926 5.66666316986084 C 0.9999966621398926 6.493763446807861 1.672896862030029 7.166663646697998 2.499996662139893 7.166663646697998 L 3.33333683013916 7.166663646697998 C 4.160436630249023 7.166663646697998 4.83333683013916 6.493763446807861 4.83333683013916 5.66666316986084 L 4.83333683013916 2.500003337860107 C 4.83333683013916 1.672903537750244 4.160436630249023 1.000003337860107 3.33333683013916 1.000003337860107 L 2.499996662139893 1.000003337860107 M 2.499996662139893 3.814697265625e-06 L 3.33333683013916 3.814697265625e-06 C 4.714046478271484 3.814697265625e-06 5.83333683013916 1.119283676147461 5.83333683013916 2.500003337860107 L 5.83333683013916 5.66666316986084 C 5.83333683013916 7.047383308410645 4.714046478271484 8.16666316986084 3.33333683013916 8.16666316986084 L 2.499996662139893 8.16666316986084 C 1.11928653717041 8.16666316986084 -3.337860107421875e-06 7.047383308410645 -3.337860107421875e-06 5.66666316986084 L -3.337860107421875e-06 2.500003337860107 C -3.337860107421875e-06 1.119283676147461 1.11928653717041 3.814697265625e-06 2.499996662139893 3.814697265625e-06 Z" stroke="none" fill="#27c940"/></g></g></svg>